<svg xmlns="http://www.w3.org/2000/svg" viewBox="0 0 168.97 195.11"><defs><style>.cls-1{fill:#005c97;}</style></defs><title>Asset 4</title><g id="Layer_2" data-name="Layer 2"><g id="Layer_1-2" data-name="Layer 1"><polygon class="cls-1" points="102.98 88.17 84.48 98.84 84.44 98.84 65.95 88.17 66 88.2 84.49 77.53 84.53 77.53 103.02 88.2 102.98 88.17"/><path class="cls-1" d="M84.49,195.11,0,146.34V48.78L84.49,0,169,48.78v97.56ZM28.72,129.76,84.49,162l55.77-32.2V65.36L84.49,33.16,28.72,65.36Z"/><path class="cls-1" d="M84.49,149.64,39.56,123.7V71.83L84.49,45.89l44.92,25.94V123.7Zm-25-37.45,25,14.42,25-14.42V83.34l-25-14.42-25,14.42Z"/></g></g></svg>