<svg xmlns="http://www.w3.org/2000/svg" viewBox="0 0 563.13 79.3"><defs><style>.cls-1{fill:#fff;}</style></defs><g id="Layer_2" data-name="Layer 2"><g id="Layer_1-2" data-name="Layer 1"><path class="cls-1" d="M11.42,79.3C4.7,79.3,0,76.5,0,67.54V12.66C0,3.7,4.7.9,11.42.9H41.78C68.43.9,72.69,21.06,72.69,40.1s-4.26,39.2-28.9,39.2Zm9-66.64c-4.48,0-5.6,1.12-5.6,5.6V61.94c0,4.48,1.12,5.6,5.6,5.6H36.62c17.92,0,20.84-11.76,20.84-27.44S54.54,12.66,36.62,12.66Z"/><path class="cls-1" d="M108.3,8.85C111.1,2.24,114.13,0,121.18,0c6.72,0,10.08,2.24,12.88,8.85L163.63,79.3H148.06L140,59.47H102.25l-8,19.83H78.74Zm-2.24,40.09h30.13L123.42,17c-.44-1.23-1.23-3.24-2.24-3.24s-1.79,2-2.24,3.24Z"/><path class="cls-1" d="M173,12.66C173,3.7,177.74.9,184.46.9h39c16.8,0,19.94,11.76,19.94,25.2s-3.14,25.42-19.94,25.42H187.82V79.3H173Zm43.12,27.1c10.08,0,12-4.7,12-13.66s-1.9-13.44-12-13.44H193.42c-4.48,0-5.6,1.12-5.6,5.6v21.5Z"/><path class="cls-1" d="M272.27,8.85C275.07,2.24,278.09,0,285.15,0c6.72,0,10.08,2.24,12.88,8.85L327.6,79.3H312L304,59.47H266.22l-8,19.83H242.7ZM270,48.94h30.13L287.39,17c-.45-1.23-1.23-3.24-2.24-3.24s-1.79,2-2.24,3.24Z"/><path class="cls-1" d="M375,12.66c-19,0-25,6.16-25,27.44s5.93,27.44,25,27.44h11.88c4.48,0,5.6-1.12,5.6-5.6V40.88h14.78V67.54c0,9-4.7,11.76-11.42,11.76H368c-26.88,0-33.26-16.8-33.26-39.2S341.15.9,368,.9h37.41V12.66Z"/><path class="cls-1" d="M485.74,79.3H434.33c-6.72,0-11.42-2.8-11.42-11.76V12.66c0-9,4.7-11.76,11.42-11.76h51V12.66h-42c-4.48,0-5.6,1.12-5.6,5.6V33.38h46.48V45.14H437.69v16.8c0,4.48,1.12,5.6,5.6,5.6h42.45Z"/><path class="cls-1" d="M563.13,79.3H511.72c-6.72,0-11.42-2.8-11.42-11.76V12.66C500.3,3.7,505,.9,511.72.9h51V12.66h-42c-4.48,0-5.6,1.12-5.6,5.6V33.38h46.48V45.14H515.08v16.8c0,4.48,1.12,5.6,5.6,5.6h42.45Z"/></g></g></svg>