<svg xmlns="http://www.w3.org/2000/svg" viewBox="0 0 824.17 244.61"><defs><style>.cls-1{fill:#fff;}</style></defs><g id="Layer_2" data-name="Layer 2"><g id="Layer_1-2" data-name="Layer 1"><path class="cls-1" d="M272.46,159.78C265.74,159.78,261,157,261,148V93.14c0-9,4.7-11.76,11.42-11.76h30.35c26.66,0,30.91,20.16,30.91,39.2s-4.25,39.2-28.89,39.2Zm9-66.64c-4.48,0-5.6,1.12-5.6,5.6v43.68c0,4.48,1.12,5.6,5.6,5.6h16.24c17.92,0,20.83-11.76,20.83-27.44s-2.91-27.44-20.83-27.44Z"/><path class="cls-1" d="M369.34,89.34c2.8-6.61,5.82-8.85,12.88-8.85,6.72,0,10.08,2.24,12.88,8.85l29.57,70.44H409.1L401,140H363.29l-8,19.82H339.77Zm-2.24,40.09h30.13L384.46,97.51c-.45-1.23-1.23-3.25-2.24-3.25s-1.79,2-2.24,3.25Z"/><path class="cls-1" d="M434.08,93.14c0-9,4.7-11.76,11.42-11.76h39c16.8,0,19.93,11.76,19.93,25.2S501.28,132,484.48,132H448.86v27.77H434.08Zm43.12,27.11c10.08,0,12-4.71,12-13.67s-1.9-13.44-12-13.44H454.46c-4.48,0-5.6,1.12-5.6,5.6v21.51Z"/><path class="cls-1" d="M533.31,89.34c2.8-6.61,5.82-8.85,12.88-8.85,6.72,0,10.08,2.24,12.88,8.85l29.56,70.44H573.07L565,140H527.26l-8,19.82H503.74Zm-2.24,40.09h30.12L548.43,97.51c-.45-1.23-1.24-3.25-2.24-3.25s-1.8,2-2.24,3.25Z"/><path class="cls-1" d="M636,93.14c-19,0-25,6.16-25,27.44S617,148,636,148h11.87c4.48,0,5.6-1.12,5.6-5.6v-21h14.79V148c0,9-4.71,11.76-11.43,11.76H629.07c-26.88,0-33.27-16.8-33.27-39.2s6.39-39.2,33.27-39.2h37.4V93.14Z"/><path class="cls-1" d="M746.78,159.78H695.37c-6.72,0-11.43-2.8-11.43-11.76V93.14c0-9,4.71-11.76,11.43-11.76h51V93.14h-42c-4.48,0-5.6,1.12-5.6,5.6v15.12h46.48v11.76H698.73v16.8c0,4.48,1.12,5.6,5.6,5.6h42.45Z"/><path class="cls-1" d="M824.17,159.78H772.76c-6.72,0-11.43-2.8-11.43-11.76V93.14c0-9,4.71-11.76,11.43-11.76h51V93.14h-42c-4.48,0-5.6,1.12-5.6,5.6v15.12H822.6v11.76H776.12v16.8c0,4.48,1.12,5.6,5.6,5.6h42.45Z"/><polygon class="cls-1" points="129.1 110.53 105.92 123.91 105.86 123.91 82.68 110.53 82.74 110.58 105.92 97.2 105.98 97.2 129.16 110.58 129.1 110.53"/><path class="cls-1" d="M105.92,244.61,0,183.46V61.15L105.92,0,211.84,61.15V183.46ZM36,162.67,105.92,203l69.92-40.37V81.94L105.92,41.57,36,81.94Z"/><path class="cls-1" d="M105.92,187.59,49.6,155.08v-65l56.32-32.52,56.32,32.52v65ZM74.6,140.65l31.32,18.08,31.32-18.08V104.48L105.92,86.4,74.6,104.48Z"/></g></g></svg>